<?xml version="1.0" encoding="UTF-8" standalone="no"?>
<svg
   xmlns:svg="http://www.w3.org/2000/svg"
   xmlns="http://www.w3.org/2000/svg"
   xmlns:xlink="http://www.w3.org/1999/xlink"
   version="1.0"
   width="337"
   height="337"
   id="dish">
  <defs
     id="defs">
    <radialGradient
       cx="333.48499"
       cy="369.577"
       r="199.64301"
       id="radialGradient01"
       gradientUnits="userSpaceOnUse"
       gradientTransform="matrix(-1.3772788,-1.2309512,0.8123804,-0.9089509,457.3448,919.6535)">
      <stop
         id="stop3540"
         style="stop-color:#FFF"
         offset="0" />
      <stop
         id="stop3542"
         style="stop-color:#a9a9a9"
         offset="1" />
    </radialGradient>
  </defs>
  <path
     d="m 29.26,30.3976 28.0967,266.32 264.223,-9.2351"
     style="fill:none;stroke:#000;stroke-width:10" />
  <path
     d="M 222.901,106.569 57.3566,296.718"
     style="stroke:#000;stroke-width:10" />
  <path
     d="M 158.672,253.216 57.3566,296.718 84.2153,187.768"
     style="fill:none;stroke:#000;stroke-width:10" />
  <path
     d="m 80.9448,296.342 a 23.193,23.193 0 1 1 -46.386,0 23.193,23.193 0 1 1 46.386,0 z"
     style="fill:none;stroke:#000;stroke-width:10" />
  <path
     d="M 87.6612,469.806 57.3566,296.718"
     style="stroke:#000;stroke-width:15;stroke-linecap:round" />
  <path
     d="m 147.357,452.624 -90,-155.906 -90.0313,155.906"
     style="fill:none;stroke:#000;stroke-width:15;stroke-linecap:round;stroke-linejoin:round" />
  <path
     d="m 29.26,30.3976 c -48.3029,54.9207 -22.0169,157.091 58.6618,228.048 80.6787,70.9572 185.346,83.9604 233.649,29.0397"
     style="stroke:#000;stroke-width:10" />
  <path
     d="M 321.58,287.482 C 290.711,322.592 200.243,293.497 119.519,222.5 38.7945,151.502 -1.614,65.49 29.2655,30.391 c 30.8683,-35.1091 121.336,-6.0146 202.06,64.9828 80.7244,70.9974 121.133,157.009 90.2534,192.108 z"
     style="fill:url(#radialGradient01);stroke:#000;stroke-width:10" />
  <path
     d="M 68.3466,65.1233 288.97,33.7274 285.475,255.899"
     style="fill:none;stroke:#000;stroke-width:15;stroke-linecap:round" />
  <path
     d="M 151.397,206.76 288.97,33.7274"
     style="stroke:#000;stroke-width:15;stroke-linecap:round" />
  <path
     d="M 316.79876,42.349076 C 312.45668,47.286044 299.9973,43.42599 288.96995,33.727403 277.9426,24.028817 272.52311,12.164357 276.86519,7.2273888 281.20727,2.290421 293.66665,6.1504756 304.694,15.849062 c 11.02735,9.698586 16.44684,21.563047 12.10476,26.5 z"
     style="stroke:#000;stroke-width:10" />
</svg>